<svg xmlns="http://www.w3.org/2000/svg" viewBox="0 0 20 20"><path d="M5.5.5h1v1h-1z" style="color:#000;fill:#2f2725" transform="translate(-1 3)"/><path d="M6.5 3.5h1v1h-1z" style="color:#000;fill:#fff" transform="translate(-1 3)"/><path d="M5.5 1.5h1v1h-1z" style="color:#000;fill:#8c51cd" transform="translate(-1 3)"/><path d="M4.5 1.5h1v1h-1zM4.5 2.5h1v1h-1z" style="color:#000;fill:#2f2725" transform="translate(-1 3)"/><path d="M6.5 1.5h1v1h-1zM7.5 1.5h1v1h-1zM8.5 1.5h1v1h-1zM9.5 1.5h1v1h-1zM10.5 1.5h1v1h-1zM11.5 1.5h1v1h-1zM12.5 1.5h1v1h-1zM13.5 1.5h1v1h-1zM14.5 1.5h1v1h-1zM15.5 1.5h1v1h-1z" style="color:#000;fill:#8c51cd" transform="translate(-1 3)"/><path d="M3.5 3.5h1v1h-1zM3.5 4.5h1v1h-1zM3.5 5.5h1v1h-1zM3.5 6.5h1v1h-1z" style="color:#000;fill:#2f2725" transform="translate(-1 3)"/><path d="M5.5 2.5h1v1h-1zM4.5 3.5h1v1h-1zM4.5 4.5h1v1h-1zM5.5 3.5h1v1h-1zM4.5 5.5h1v1h-1zM4.5 6.5h1v1h-1zM6.5.5h1v1h-1zM7.5.5h1v1h-1z" style="color:#000;fill:#8c51cd" transform="translate(-1 3)"/><path d="M6.5-.5h1v1h-1zM7.5-.5h1v1h-1zM8.5-1.5h1v1h-1zM9.5-1.5h1v1h-1zM10.5-1.5h1v1h-1zM11.5-1.5h1v1h-1zM12.5-1.5h1v1h-1zM13.5-.5h1v1h-1zM14.5-.5h1v1h-1z" style="color:#000;fill:#2f2725" transform="translate(-1 3)"/><path d="M6.5 1.5h1v1h-1zM7.5 1.5h1v1h-1zM7.5.5h1v1h-1zM8.5-.5h1v1h-1zM8.5.5h1v1h-1zM9.5.5h1v1h-1zM9.5-.5h1v1h-1zM10.5-.5h1v1h-1zM10.5.5h1v1h-1zM11.5.5h1v1h-1zM11.5-.5h1v1h-1zM12.5.5h1v1h-1zM12.5-.5h1v1h-1zM13.5.5h1v1h-1zM14.5.5h1v1h-1z" style="color:#000;fill:#8c51cd" transform="translate(-1 3)"/><path d="M15.5.5h1v1h-1zM16.5 1.5h1v1h-1zM16.5 2.5h1v1h-1zM17.5 3.5h1v1h-1zM17.5 4.5h1v1h-1zM17.5 5.5h1v1h-1zM17.5 6.5h1v1h-1zM16.5 7.5h1v1h-1zM13.5 5.5h1v1h-1zM13.5 6.5h1v1h-1zM12.5 5.5h1v1h-1zM12.5 6.5h1v1h-1zM8.5 5.5h1v1h-1zM8.5 6.5h1v1h-1zM7.5 5.5h1v1h-1zM7.5 6.5h1v1h-1zM10.5 8.5h1v1h-1zM10.5 9.5h1v1h-1zM9.5 8.5h1v1h-1zM9.5 9.5h1v1h-1zM4.5 7.5h1v1h-1zM3.5 8.5h1v1h-1zM2.5 9.5h1v1h-1zM2.5 10.5h1v1h-1zM3.5 11.5h1v1h-1zM3.5 12.5h1v1h-1zM4.5 10.5h1v1h-1zM4.5 11.5h1v1h-1zM5.5 8.5h1v1h-1zM5.5 9.5h1v1h-1zM7.5 8.5h1v1h-1zM7.5 9.5h1v1h-1zM7.5 10.5h1v1h-1zM7.5 11.5h1v1h-1zM6.5 12.5h1v1h-1zM6.5 13.5h1v1h-1zM13.5 8.5h1v1h-1zM13.5 9.5h1v1h-1zM13.5 10.5h1v1h-1zM13.5 11.5h1v1h-1zM11.5 8.5h1v1h-1zM11.5 9.5h1v1h-1zM10.5 11.5h1v1h-1zM10.5 12.5h1v1h-1zM4.5 13.5h1v1h-1zM5.5 13.5h1v1h-1zM7.5 14.5h1v1h-1zM8.5 14.5h1v1h-1zM12.5 14.5h1v1h-1zM13.5 14.5h1v1h-1z" style="color:#000;fill:#2f2725" transform="translate(-1 3)"/><path d="M6.5 2.5h1v1h-1zM7.5 2.5h1v1h-1zM8.5 2.5h1v1h-1zM9.5 2.5h1v1h-1zM10.5 2.5h1v1h-1zM11.5 2.5h1v1h-1zM12.5 2.5h1v1h-1zM13.5 2.5h1v1h-1zM14.5 2.5h1v1h-1zM15.5 2.5h1v1h-1z" style="color:#000;fill:#8c51cd" transform="translate(-1 3)"/><path d="M6.5 2.5h1v1h-1zM7.5 2.5h1v1h-1zM9.5 3.5h1v1h-1zM10.5 3.5h1v1h-1zM11.5 3.5h1v1h-1zM10.5 4.5h1v1h-1zM10.5 5.5h1v1h-1zM5.5 7.5h1v1h-1zM6.5 8.5h1v1h-1zM4.5 8.5h1v1h-1zM4.5 9.5h1v1h-1zM3.5 9.5h1v1h-1zM3.5 10.5h1v1h-1zM5.5 10.5h1v1h-1zM5.5 11.5h1v1h-1zM4.5 12.5h1v1h-1zM5.5 12.5h1v1h-1zM7.5 13.5h1v1h-1zM8.5 13.5h1v1h-1zM8.5 12.5h1v1h-1zM8.5 11.5h1v1h-1zM8.5 9.5h1v1h-1zM8.5 8.5h1v1h-1zM6.5 11.5h1v1h-1zM6.5 10.5h1v1h-1z" style="color:#000;fill:#8c51cd" transform="translate(-1 3)"/><path d="M5.5 4.5h1v1h-1zM5.5 5.5h1v1h-1zM5.5 6.5h1v1h-1zM6.5 7.5h1v1h-1zM7.5 7.5h1v1h-1zM6.5 4.5h1v1h-1zM6.5 5.5h1v1h-1zM6.5 6.5h1v1h-1zM14.5 4.5h1v1h-1zM14.5 5.5h1v1h-1zM14.5 6.5h1v1h-1zM15.5 4.5h1v1h-1zM15.5 5.5h1v1h-1zM15.5 6.5h1v1h-1zM7.5 4.5h1v1h-1zM8.5 4.5h1v1h-1zM7.5 3.5h1v1h-1zM8.5 3.5h1v1h-1zM9.5 5.5h1v1h-1zM9.5 4.5h1v1h-1zM11.5 5.5h1v1h-1zM11.5 4.5h1v1h-1zM12.5 4.5h1v1h-1zM12.5 3.5h1v1h-1zM13.5 4.5h1v1h-1zM13.5 3.5h1v1h-1zM14.5 3.5h1v1h-1zM13.5 7.5h1v1h-1zM14.5 7.5h1v1h-1z" style="color:#000;fill:#fff" transform="translate(-1 3)"/><path d="M9.5 7.5h1v1h-1zM10.5 7.5h1v1h-1zM11.5 7.5h1v1h-1zM12.5 8.5h1v1h-1zM12.5 9.5h1v1h-1zM9.5 10.5h1v1h-1zM10.5 10.5h1v1h-1zM11.5 10.5h1v1h-1zM9.5 12.5h1v1h-1zM11.5 12.5h1v1h-1zM12.5 12.5h1v1h-1zM12.5 11.5h1v1h-1zM12.5 13.5h1v1h-1zM13.5 13.5h1v1h-1zM14.5 10.5h1v1h-1zM15.5 10.5h1v1h-1zM14.5 11.5h1v1h-1zM15.5 11.5h1v1h-1zM15.5 12.5h1v1h-1zM16.5 12.5h1v1h-1zM16.5 9.5h1v1h-1zM17.5 9.5h1v1h-1zM15.5 3.5h1v1h-1zM16.5 4.5h1v1h-1zM16.5 5.5h1v1h-1zM16.5 6.5h1v1h-1zM16.5 3.5h1v1h-1zM15.5 7.5h1v1h-1zM14.5 8.5h1v1h-1zM16.5 8.5h1v1h-1zM17.5 10.5h1v1h-1z" style="color:#000;fill:#8c51cd" transform="translate(-1 3)"/><path d="M9.5 6.5h1v1h-1zM8.5 7.5h1v1h-1zM6.5 9.5h1v1h-1zM8.5 10.5h1v1h-1zM7.5 12.5h1v1h-1zM9.5 11.5h1v1h-1zM11.5 11.5h1v1h-1zM9.5 13.5h1v1h-1zM11.5 13.5h1v1h-1zM12.5 10.5h1v1h-1zM14.5 9.5h1v1h-1zM15.5 9.5h1v1h-1zM15.5 8.5h1v1h-1zM12.5 7.5h1v1h-1zM11.5 6.5h1v1h-1zM10.5 6.5h1v1h-1zM14.5 12.5h1v1h-1zM13.5 12.5h1v1h-1zM15.5 13.5h1v1h-1zM14.5 13.5h1v1h-1zM17.5 11.5h1v1h-1zM16.5 11.5h1v1h-1zM18.5 10.5h1v1h-1zM18.5 9.5h1v1h-1zM17.5 8.5h1v1h-1zM16.5 10.5h1v1h-1zM17.5 12.5h1v1h-1zM16.5 13.5h1v1h-1z" style="color:#000;fill:#2f2725" transform="translate(-1 3)"/></svg>